<svg width="142" height="50" viewBox="0 0 142 50" fill="none" xmlns="http://www.w3.org/2000/svg">
<g filter="url(#filter0_d_293_3582)">
<rect x="4" y="2" width="7.44444" height="42" fill="white"/>
<rect x="130.556" y="2" width="7.44444" height="42" fill="white"/>
<rect x="26.3333" y="2" width="10.6349" height="42" fill="white"/>
<rect x="39.0952" y="2" width="2.12698" height="42" fill="white"/>
<rect x="43.3492" y="2" width="2.12698" height="42" fill="white"/>
<rect x="86.9524" y="2" width="2.12698" height="42" fill="white"/>
<rect x="93.3333" y="2" width="2.12698" height="42" fill="white"/>
<rect x="97.5873" y="2" width="2.12698" height="42" fill="white"/>
<rect x="124.175" y="2" width="2.12698" height="42" fill="white"/>
<rect x="49.7302" y="2" width="5.31746" height="42" fill="white"/>
<rect x="79.5079" y="2" width="5.31746" height="42" fill="white"/>
<rect x="103.968" y="2" width="5.31746" height="42" fill="white"/>
<rect x="57.1746" y="2" width="10.6349" height="42" fill="white"/>
<rect x="111.413" y="2" width="10.6349" height="42" fill="white"/>
<rect x="69.9365" y="2" width="5.31746" height="42" fill="white"/>
<rect x="15.6984" y="2" width="3.19048" height="42" fill="white"/>
<rect x="21.0159" y="2" width="3.19048" height="42" fill="white"/>
</g>
<defs>
<filter id="filter0_d_293_3582" x="0" y="0" width="142" height="50" filterUnits="userSpaceOnUse" color-interpolation-filters="sRGB">
<feFlood flood-opacity="0" result="BackgroundImageFix"/>
<feColorMatrix in="SourceAlpha" type="matrix" values="0 0 0 0 0 0 0 0 0 0 0 0 0 0 0 0 0 0 127 0" result="hardAlpha"/>
<feOffset dy="2"/>
<feGaussianBlur stdDeviation="2"/>
<feComposite in2="hardAlpha" operator="out"/>
<feColorMatrix type="matrix" values="0 0 0 0 0 0 0 0 0 0 0 0 0 0 0 0 0 0 0.25 0"/>
<feBlend mode="normal" in2="BackgroundImageFix" result="effect1_dropShadow_293_3582"/>
<feBlend mode="normal" in="SourceGraphic" in2="effect1_dropShadow_293_3582" result="shape"/>
</filter>
</defs>
</svg>
