<svg width="131" height="16" viewBox="0 0 131 16" fill="none" xmlns="http://www.w3.org/2000/svg">
<g clip-path="url(#clip0_2898_47985)">
<path fill-rule="evenodd" clip-rule="evenodd" d="M80.5694 3.83649e-06C80.1717 -0.000776812 79.7826 0.117594 79.4515 0.340132C79.1203 0.562669 78.862 0.879372 78.7093 1.25016C78.5565 1.62095 78.5162 2.02915 78.5933 2.42311C78.6704 2.81706 78.8616 3.17907 79.1426 3.46331C79.4236 3.74754 79.7818 3.94123 80.1719 4.01986C80.562 4.0985 80.9664 4.05854 81.334 3.90504C81.7016 3.75154 82.0158 3.49141 82.2368 3.15757C82.4579 2.82372 82.5759 2.43116 82.5759 2.02958C82.5745 1.49241 82.3629 0.977581 81.987 0.597374C81.6111 0.217167 81.1015 0.00243075 80.5694 3.83649e-06ZM2.75648 0.609928H2.62367H0.26432H0.131509H0V0.744006V0.87677V15.7332V15.8659V16H0.131509H0.26432H2.62367H2.75648V15.7332V10.6513H7.6171H7.74991V10.3845V7.99212V7.85935H7.6171H2.75648V3.40191H7.6171H7.74991V3.13507V0.744006V0.609928H7.6171H2.75648ZM18.3478 12.3964C19.1471 12.9356 20.0867 13.2235 21.0479 13.2238C21.6871 13.224 22.32 13.0969 22.9104 12.8499C23.5009 12.6029 24.0373 12.2408 24.489 11.7843C24.9407 11.3278 25.2988 10.7859 25.5428 10.1896C25.7869 9.59321 25.912 8.95414 25.9112 8.30891C25.9099 7.33847 25.6237 6.3902 25.0887 5.58393C24.5538 4.77765 23.7941 4.14957 22.9056 3.77904C22.0172 3.40851 21.0399 3.31216 20.0972 3.50219C19.1546 3.69221 18.2889 4.16007 17.6095 4.84664C16.9302 5.53321 16.4677 6.40767 16.2804 7.35953C16.0932 8.31138 16.1897 9.2979 16.5577 10.1944C16.9256 11.0909 17.5486 11.8572 18.3478 12.3964ZM16.8149 1.92134C18.0679 1.07633 19.5411 0.625444 21.0479 0.625704C23.0678 0.626749 25.0046 1.43726 26.4329 2.87914C27.8612 4.32103 28.664 6.27634 28.6651 8.31548C28.6653 9.83675 28.2187 11.3239 27.3817 12.5889C26.5446 13.8539 25.3548 14.8399 23.9627 15.4222C22.5705 16.0045 21.0386 16.1569 19.5607 15.8602C18.0827 15.5635 16.7252 14.8309 15.6596 13.7552C14.5941 12.6795 13.8685 11.309 13.5746 9.81693C13.2807 8.32488 13.4316 6.77836 14.0084 5.37294C14.5852 3.96752 15.5619 2.76635 16.8149 1.92134ZM70.6659 13.2172V0.744006V0.609928H70.5331H68.0331H67.9003V0.744006V15.7332V16H68.0331H76.7778H76.9093V15.7332V13.35V13.2172H76.7778H70.6659ZM92.1461 7.87381H94.5068C95.8179 7.87381 96.8752 6.95367 96.8752 5.63917C96.8752 4.32468 95.8179 3.40454 94.5068 3.40454H92.1461V7.87381ZM89.3792 0.623076H94.637V0.627019C97.4039 0.698002 99.6304 2.83536 99.6304 5.64575C99.6304 8.45613 97.4039 10.5935 94.637 10.6645H92.1448V16.0026H89.3792V0.623076ZM130 0.609928H127.508H127.426L127.376 0.715088L125.016 5.48407L122.647 0.70983L122.596 0.609928H122.514H120.022H119.815L119.941 0.87677L123.633 8.33783V15.7332V16H123.766H126.258H126.389V15.7332V8.34309L130.083 0.87677L130.207 0.609928H130ZM54.2846 9.43806H57.0098H57.2507L55.7663 4.94907L54.2846 9.43806ZM57.1426 0.715088L62.0983 15.7332L62.136 15.8436L62.1868 16H59.4186L59.3822 15.887L58.1712 12.2208H53.3692L52.1609 15.8791L52.1205 16H49.3432L49.3601 15.9474L49.3953 15.837L49.4304 15.7332L54.3887 0.721663L54.4265 0.60993H57.1074L57.1426 0.715088ZM34.5673 5.88367C34.1854 7.04828 34.0846 8.28814 34.2733 9.50003C34.462 10.7119 34.9347 11.8608 35.6521 12.851C36.3695 13.8411 37.3108 14.644 38.3977 15.1926C39.4845 15.7413 40.6855 16.0199 41.9006 16.0053L42.8524 13.1068C42.0138 13.293 41.1413 13.2515 40.3238 12.9867C39.5062 12.7219 38.7727 12.2432 38.1979 11.5993C37.6231 10.9554 37.2275 10.1693 37.0513 9.32089C36.8752 8.47252 36.9248 7.59218 37.1951 6.76944C37.4655 5.94671 37.9468 5.21095 38.5903 4.63701C39.2337 4.06308 40.0163 3.67145 40.8583 3.50199C41.7004 3.33252 42.5718 3.39125 43.3841 3.67222C44.1964 3.95319 44.9204 4.44636 45.4826 5.10155L46.4344 2.20967C45.4694 1.46618 44.3426 0.965827 43.1476 0.750161C41.9526 0.534496 40.7239 0.609737 39.5635 0.969639C38.4031 1.32954 37.3444 1.96372 36.4755 2.81952C35.6066 3.67531 34.9524 4.72802 34.5673 5.89025V5.88367ZM108.1 9.43806H110.826H111.066L109.582 4.94907L108.1 9.43806ZM110.957 0.715088L115.913 15.7332L115.945 15.8436L115.996 16H113.227L113.189 15.887L111.978 12.2208H107.181L105.973 15.8791L105.934 16H103.155L103.172 15.9474L103.208 15.837L103.244 15.7332L108.201 0.721663L108.238 0.60993H110.922L110.957 0.715088Z" fill="white"/>
</g>
<defs>
<clipPath id="clip0_2898_47985">
<rect width="130.207" height="16" fill="white"/>
</clipPath>
</defs>
</svg>
