<svg width="195" height="194" viewBox="0 0 195 194" fill="none" xmlns="http://www.w3.org/2000/svg">
<g filter="url(#filter0_d_1996_15889)">
<path d="M7.5 46.5385V25C7.5 13.9543 16.4543 5 27.5 5H49.0385" stroke="white" stroke-width="6" stroke-linecap="round"/>
<path d="M49.0385 185L27.5 185C16.4543 185 7.5 176.046 7.5 165L7.5 143.462" stroke="white" stroke-width="6" stroke-linecap="round"/>
<path d="M187.5 143.462L187.5 165C187.5 176.046 178.546 185 167.5 185L145.962 185" stroke="white" stroke-width="6" stroke-linecap="round"/>
<path d="M145.962 5.00001L167.5 5C178.546 5 187.5 13.9543 187.5 25L187.5 46.5385" stroke="white" stroke-width="6" stroke-linecap="round"/>
</g>
<g filter="url(#filter1_d_1996_15889)">
<path d="M49.8581 100.24C52.6261 100.24 54.3061 99.184 54.3061 96.928C54.3061 94.944 53.1541 94.032 51.4101 93.872L49.2501 93.664C48.6421 93.616 48.1781 93.28 48.1781 92.672C48.1781 92.048 48.6581 91.696 49.3141 91.696H50.2261C50.9781 91.696 51.4101 92.256 51.5061 92.88H54.0501C53.9701 90.624 52.5461 89.52 49.8901 89.52C47.4741 89.52 45.6981 90.608 45.6981 92.832C45.6981 94.592 46.6901 95.696 48.6741 95.888L50.8181 96.096C51.4741 96.16 51.8421 96.528 51.8421 97.056C51.8421 97.632 51.4421 98.064 50.6261 98.064H49.4581C48.6421 98.064 48.1301 97.616 48.0021 96.832H45.4581C45.5061 99.072 46.8821 100.24 49.8581 100.24ZM59.6009 100.24C61.7289 100.24 63.3769 98.976 63.4249 97.056H61.0409C60.9769 97.744 60.4649 98.192 59.8569 98.192H59.3129C58.5289 98.192 57.9529 97.344 57.9529 96.208C57.9529 95.056 58.5289 94.208 59.3129 94.208H59.8569C60.3849 94.208 60.8969 94.544 60.9769 95.248H63.3929C63.2489 93.312 61.6969 92.16 59.6489 92.16C57.2489 92.16 55.5209 93.856 55.5209 96.208C55.5209 98.544 57.1849 100.24 59.6009 100.24ZM67.9141 100.24C69.1781 100.24 69.8341 99.616 70.3461 98.944V100H72.7301V92.4H70.3461V93.264C69.8501 92.672 69.0341 92.16 67.9461 92.16C65.8981 92.16 64.4741 93.84 64.4741 96.192C64.4741 98.544 65.8501 100.24 67.9141 100.24ZM66.9221 96.192C66.9221 95.056 67.5141 94.192 68.3141 94.192H68.9701C69.8341 94.192 70.2661 94.976 70.2661 95.728V96.752C70.2661 97.616 69.6901 98.208 68.9701 98.208H68.3141C67.5141 98.208 66.9221 97.344 66.9221 96.192ZM74.6077 100H77.0877V95.584C77.0877 94.816 77.5357 94.352 78.0957 94.352H78.7197C79.2797 94.352 79.6157 94.784 79.6157 95.584V100H82.0797V95.056C82.0797 93.008 80.9437 92.16 79.3437 92.16C78.0637 92.16 77.4077 92.72 77.0077 93.504V92.4H74.6077V100ZM92.9086 102.768H97.7886V100.848H93.6766C93.4686 100.848 93.3566 100.736 93.3566 100.528V100.032C95.9966 99.664 97.7886 97.76 97.7886 94.88C97.7886 91.68 95.5806 89.52 92.4606 89.52C89.2926 89.52 87.1326 91.68 87.1326 94.88C87.1326 97.696 88.8126 99.68 91.3886 100.112V101.296C91.3886 102.272 91.9006 102.768 92.9086 102.768ZM89.7086 94.896C89.7086 93.184 90.6686 91.76 91.9806 91.76H92.9406C94.2686 91.76 95.1966 93.168 95.1966 94.896C95.1966 96.592 94.2686 98.032 92.9406 98.032H91.9806C90.6686 98.032 89.7086 96.576 89.7086 94.896ZM99.7253 100H102.253V96.288H103.965L105.965 100H108.765L106.493 95.888C107.757 95.36 108.397 94.272 108.397 93.024C108.397 91.376 107.341 89.76 104.813 89.76H99.7253V100ZM102.253 94.32V91.888H104.621C105.405 91.888 105.853 92.4 105.853 93.088C105.853 93.776 105.405 94.32 104.621 94.32H102.253ZM117.398 100.24C119.526 100.24 121.174 98.976 121.222 97.056H118.838C118.774 97.744 118.262 98.192 117.654 98.192H117.11C116.326 98.192 115.75 97.344 115.75 96.208C115.75 95.056 116.326 94.208 117.11 94.208H117.654C118.182 94.208 118.694 94.544 118.774 95.248H121.19C121.046 93.312 119.494 92.16 117.446 92.16C115.046 92.16 113.318 93.856 113.318 96.208C113.318 98.544 114.982 100.24 117.398 100.24ZM126.431 100.24C128.815 100.24 130.591 98.544 130.591 96.208C130.591 93.872 128.815 92.16 126.431 92.16C124.063 92.16 122.271 93.888 122.271 96.208C122.271 98.528 124.063 100.24 126.431 100.24ZM124.703 96.208C124.703 95.072 125.343 94.224 126.127 94.224H126.735C127.535 94.224 128.175 95.072 128.175 96.208C128.175 97.344 127.535 98.176 126.735 98.176H126.127C125.343 98.176 124.703 97.328 124.703 96.208ZM135.148 100.24C136.412 100.24 137.068 99.616 137.58 98.944V100H139.964V89.44H137.5V93.216C137.052 92.672 136.268 92.16 135.18 92.16C133.132 92.16 131.708 93.84 131.708 96.192C131.708 98.544 133.084 100.24 135.148 100.24ZM134.156 96.192C134.156 95.056 134.748 94.192 135.548 94.192H136.204C137.068 94.192 137.5 94.976 137.5 95.728V96.752C137.5 97.616 136.924 98.208 136.204 98.208H135.548C134.748 98.208 134.156 97.344 134.156 96.192ZM145.57 100.24C147.906 100.24 149.362 98.992 149.474 97.36H147.074C146.978 97.872 146.562 98.288 145.89 98.288H145.33C144.546 98.288 144.034 97.6 143.89 96.688H149.522V96.096C149.522 93.472 147.794 92.16 145.602 92.16C143.186 92.16 141.474 93.744 141.474 96.208C141.474 98.528 142.962 100.24 145.57 100.24ZM143.986 95.296C144.194 94.592 144.674 94.112 145.282 94.112H145.874C146.482 94.112 147.01 94.624 147.042 95.296H143.986Z" fill="white"/>
</g>
<defs>
<filter id="filter0_d_1996_15889" x="0.5" y="0" width="194" height="194" filterUnits="userSpaceOnUse" color-interpolation-filters="sRGB">
<feFlood flood-opacity="0" result="BackgroundImageFix"/>
<feColorMatrix in="SourceAlpha" type="matrix" values="0 0 0 0 0 0 0 0 0 0 0 0 0 0 0 0 0 0 127 0" result="hardAlpha"/>
<feOffset dy="2"/>
<feGaussianBlur stdDeviation="2"/>
<feComposite in2="hardAlpha" operator="out"/>
<feColorMatrix type="matrix" values="0 0 0 0 0 0 0 0 0 0 0 0 0 0 0 0 0 0 0.25 0"/>
<feBlend mode="normal" in2="BackgroundImageFix" result="effect1_dropShadow_1996_15889"/>
<feBlend mode="normal" in="SourceGraphic" in2="effect1_dropShadow_1996_15889" result="shape"/>
</filter>
<filter id="filter1_d_1996_15889" x="41.458" y="87.44" width="112.064" height="21.328" filterUnits="userSpaceOnUse" color-interpolation-filters="sRGB">
<feFlood flood-opacity="0" result="BackgroundImageFix"/>
<feColorMatrix in="SourceAlpha" type="matrix" values="0 0 0 0 0 0 0 0 0 0 0 0 0 0 0 0 0 0 127 0" result="hardAlpha"/>
<feOffset dy="2"/>
<feGaussianBlur stdDeviation="2"/>
<feComposite in2="hardAlpha" operator="out"/>
<feColorMatrix type="matrix" values="0 0 0 0 0 0 0 0 0 0 0 0 0 0 0 0 0 0 0.25 0"/>
<feBlend mode="normal" in2="BackgroundImageFix" result="effect1_dropShadow_1996_15889"/>
<feBlend mode="normal" in="SourceGraphic" in2="effect1_dropShadow_1996_15889" result="shape"/>
</filter>
</defs>
</svg>
