<svg width="24" height="24" viewBox="0 0 24 24" fill="none" xmlns="http://www.w3.org/2000/svg">
<path d="M8.48528 12.7279C8.29774 12.9154 8.19239 13.1698 8.19239 13.435C8.19239 13.7002 8.29774 13.9546 8.48528 14.1421L9.89949 15.5563C10.087 15.7438 10.3414 15.8492 10.6066 15.8492C10.8718 15.8492 11.1262 15.7438 11.3137 15.5563C11.5012 15.3688 11.6066 15.1144 11.6066 14.8492C11.6066 14.584 11.5012 14.3296 11.3137 14.1421L9.89949 12.7279C9.71196 12.5403 9.4576 12.435 9.19239 12.435C8.92717 12.435 8.67282 12.5403 8.48528 12.7279ZM17.6777 4.9497C17.8652 4.76217 17.9706 4.50781 17.9706 4.24259C17.9706 3.97738 17.8652 3.72302 17.6777 3.53549L14.8492 0.707061C14.6617 0.519525 14.4074 0.414168 14.1421 0.414168C13.8769 0.414168 13.6226 0.519525 13.435 0.707061L0.707107 13.435C0.51957 13.6225 0.414214 13.8769 0.414214 14.1421C0.414214 14.4073 0.51957 14.6617 0.707107 14.8492L3.53553 17.6776C3.72307 17.8652 3.97742 17.9705 4.24264 17.9705C4.50786 17.9705 4.76221 17.8652 4.94975 17.6776C5.13728 17.4901 5.39164 17.3847 5.65685 17.3847C5.92207 17.3847 6.17642 17.4901 6.36396 17.6776C6.5515 17.8652 6.65685 18.1195 6.65685 18.3847C6.65685 18.6499 6.5515 18.9043 6.36396 19.0918C6.17642 19.2794 6.07107 19.5337 6.07107 19.7989C6.07107 20.0642 6.17642 20.3185 6.36396 20.5061L9.19239 23.3345C9.37992 23.522 9.63428 23.6274 9.8995 23.6274C10.1647 23.6274 10.4191 23.522 10.6066 23.3345L23.3345 10.6066C23.5221 10.419 23.6274 10.1647 23.6274 9.89945C23.6274 9.63423 23.5221 9.37988 23.3345 9.19234L20.5061 6.36392C20.3186 6.17638 20.0642 6.07102 19.799 6.07102C19.5338 6.07102 19.2794 6.17638 19.0919 6.36392C18.9043 6.55145 18.65 6.65681 18.3848 6.65681C18.1196 6.65681 17.8652 6.55145 17.6777 6.36392C17.4901 6.17638 17.3848 5.92203 17.3848 5.65681C17.3848 5.39159 17.4901 5.13724 17.6777 4.9497ZM15.6836 4.36987C15.4227 4.92803 15.34 5.55298 15.4468 6.15979C15.5535 6.7666 15.8444 7.32583 16.2801 7.7615C16.7158 8.19716 17.275 8.48812 17.8818 8.59483C18.4886 8.70155 19.1136 8.61884 19.6717 8.35796L21.2132 9.89945L14.1421 16.9705C13.9546 16.783 13.7002 16.6776 13.435 16.6776C13.1698 16.6776 12.9155 16.783 12.7279 16.9705C12.5404 17.1581 12.435 17.4124 12.435 17.6776C12.435 17.9428 12.5404 18.1972 12.7279 18.3847L9.89949 21.2132L8.358 19.6717C8.61889 19.1135 8.70159 18.4886 8.59488 17.8817C8.48816 17.2749 8.1972 16.7157 7.76154 16.28C7.32588 15.8444 6.76664 15.5534 6.15984 15.4467C5.55303 15.34 4.92808 15.4227 4.36992 15.6836L2.82843 14.1421L5.65685 11.3137C5.84439 11.5012 6.09874 11.6066 6.36396 11.6066C6.62918 11.6066 6.88353 11.5012 7.07107 11.3137C7.2586 11.1261 7.36396 10.8718 7.36396 10.6066C7.36396 10.3413 7.2586 10.087 7.07107 9.89945L14.1421 2.82838L15.6836 4.36987Z" fill="#242424"/>
</svg>
