<svg width="18" height="18" viewBox="0 0 18 18" fill="none" xmlns="http://www.w3.org/2000/svg">
<path fill-rule="evenodd" clip-rule="evenodd" d="M13.9999 9.0034H16.4999C16.7209 9.0034 16.9329 9.09119 17.0892 9.24747C17.2455 9.40375 17.3333 9.61572 17.3333 9.83673V14.8367C17.3333 15.4998 17.0699 16.1357 16.601 16.6045C16.1322 17.0733 15.4963 17.3367 14.8333 17.3367H3.16659C2.50355 17.3367 1.86766 17.0733 1.39882 16.6045C0.929981 16.1357 0.666589 15.4998 0.666589 14.8367V14.0063L0.666566 14.0001C0.666566 13.5398 1.03966 13.1668 1.4999 13.1668C1.96014 13.1668 2.33323 13.5398 2.33323 14.0001L2.33326 14.0001V14.8367C2.33326 15.0577 2.42105 15.2697 2.57733 15.426C2.73361 15.5823 2.94557 15.6701 3.16659 15.6701H12.4833C12.3862 15.4028 12.3355 15.121 12.3333 14.8367V2.94506L10.6666 3.89506C10.538 3.96224 10.395 3.99732 10.2499 3.99732C10.1048 3.99732 9.96187 3.96224 9.83326 3.89506L7.33326 2.46173L4.83326 3.89506C4.70464 3.96224 4.56169 3.99732 4.41659 3.99732C4.27149 3.99732 4.12854 3.96224 3.99992 3.89506L2.33326 2.94506V5.66675L2.33323 5.66675C2.33323 6.12699 1.96014 6.50008 1.4999 6.50008C1.03966 6.50008 0.666566 6.12699 0.666566 5.66675L0.666589 5.66052V1.50339C0.666006 1.35655 0.704234 1.21216 0.777404 1.08485C0.850573 0.957534 0.956085 0.851814 1.08326 0.778394C1.20994 0.705253 1.35364 0.666748 1.49992 0.666748C1.6462 0.666748 1.78991 0.705253 1.91659 0.778394L4.41659 2.21173L6.91659 0.778394C7.04327 0.705253 7.18698 0.666748 7.33326 0.666748C7.47954 0.666748 7.62324 0.705253 7.74992 0.778394L10.2499 2.21173L12.7499 0.778394C12.8766 0.705253 13.0203 0.666748 13.1666 0.666748C13.3129 0.666748 13.4566 0.705253 13.5833 0.778394C13.7104 0.851814 13.8159 0.957534 13.8891 1.08485C13.9623 1.21216 14.0005 1.35655 13.9999 1.50339V9.0034ZM15.4225 15.426C15.5788 15.2697 15.6666 15.0577 15.6666 14.8367V10.6701H13.9999V14.8367C13.9999 15.0577 14.0877 15.2697 14.244 15.426C14.4003 15.5823 14.6122 15.6701 14.8333 15.6701C15.0543 15.6701 15.2662 15.5823 15.4225 15.426ZM10.4183 10.4275C10.5746 10.2712 10.6624 10.0593 10.6624 9.83825C10.6624 9.61724 10.5746 9.40527 10.4183 9.24899C10.262 9.09271 10.05 9.00492 9.82902 9.00492L3.50402 9.00492L5.42068 7.09658C5.49879 7.01911 5.56078 6.92695 5.60309 6.8254C5.6454 6.72385 5.66718 6.61493 5.66718 6.50492C5.66718 6.39491 5.6454 6.28598 5.60309 6.18443C5.56078 6.08289 5.49879 5.99072 5.42068 5.91325C5.34321 5.83514 5.25105 5.77315 5.1495 5.73084C5.04795 5.68853 4.93902 5.66675 4.82902 5.66675C4.71901 5.66675 4.61008 5.68853 4.50853 5.73084C4.40699 5.77315 4.31482 5.83514 4.23735 5.91325L0.904014 9.24658C0.828147 9.32584 0.768677 9.41929 0.729015 9.52158C0.645667 9.72447 0.645667 9.95203 0.729015 10.1549C0.768677 10.2572 0.828147 10.3507 0.904014 10.4299L4.23735 13.7632C4.31505 13.8409 4.40729 13.9026 4.50881 13.9446C4.61033 13.9867 4.71913 14.0083 4.82902 14.0083C4.9389 14.0083 5.04771 13.9867 5.14922 13.9446C5.25074 13.9026 5.34298 13.8409 5.42068 13.7632C5.49838 13.6856 5.56002 13.5933 5.60207 13.4918C5.64412 13.3903 5.66576 13.2815 5.66576 13.1716C5.66576 13.0617 5.64412 12.9529 5.60207 12.8514C5.56002 12.7499 5.49838 12.6576 5.42068 12.5799L3.50402 10.6716H9.82902C10.05 10.6716 10.262 10.5838 10.4183 10.4275Z" fill="#242424"/>
</svg>
