<svg width="23" height="24" viewBox="0 0 23 24" fill="none" xmlns="http://www.w3.org/2000/svg">
<g clip-path="url(#clip0_3022_113366)">
<path d="M13.7144 19.4285C14.0175 19.4285 14.3082 19.3081 14.5225 19.0938C14.7368 18.8794 14.8572 18.5887 14.8572 18.2856V15.9999C14.8572 15.6968 14.7368 15.4061 14.5225 15.1918C14.3082 14.9775 14.0175 14.8571 13.7144 14.8571C13.4113 14.8571 13.1206 14.9775 12.9063 15.1918C12.6919 15.4061 12.5715 15.6968 12.5715 15.9999V18.2856C12.5715 18.5887 12.6919 18.8794 12.9063 19.0938C13.1206 19.3081 13.4113 19.4285 13.7144 19.4285ZM9.14295 19.4285C9.44606 19.4285 9.73675 19.3081 9.95107 19.0938C10.1654 18.8794 10.2858 18.5887 10.2858 18.2856V15.9999C10.2858 15.6968 10.1654 15.4061 9.95107 15.1918C9.73675 14.9775 9.44606 14.8571 9.14295 14.8571C8.83985 14.8571 8.54916 14.9775 8.33483 15.1918C8.12051 15.4061 8.0001 15.6968 8.0001 15.9999V18.2856C8.0001 18.5887 8.12051 18.8794 8.33483 19.0938C8.54916 19.3081 8.83985 19.4285 9.14295 19.4285ZM19.4286 5.71424H17.8515L15.8744 1.77139C15.814 1.62631 15.7243 1.49524 15.6109 1.38639C15.4976 1.27754 15.363 1.19324 15.2156 1.13875C15.0681 1.08427 14.9111 1.06077 14.7542 1.06973C14.5973 1.07869 14.4439 1.11992 14.3037 1.19083C14.1634 1.26174 14.0393 1.36082 13.9391 1.48187C13.8388 1.60292 13.7646 1.74334 13.7211 1.89435C13.6776 2.04537 13.6657 2.20374 13.6862 2.35955C13.7067 2.51537 13.7591 2.6653 13.8401 2.79996L15.2915 5.71424H7.56581L9.01724 2.79996C9.12817 2.53357 9.13422 2.23507 9.03418 1.9644C8.93413 1.69373 8.7354 1.47093 8.47788 1.34072C8.22036 1.21051 7.92312 1.18255 7.64583 1.26243C7.36854 1.34231 7.13173 1.52413 6.98296 1.77139L5.00582 5.71424H3.42868C2.62089 5.72653 1.8434 6.02366 1.23331 6.55325C0.623222 7.08283 0.219739 7.81084 0.0940209 8.60887C-0.0316968 9.40691 0.128427 10.2237 0.546152 10.9152C0.963877 11.6067 1.61237 12.1285 2.37725 12.3885L3.22296 20.9142C3.30825 21.7629 3.70678 22.5493 4.34076 23.1198C4.97473 23.6904 5.79862 24.0042 6.65153 23.9999H16.2287C17.0816 24.0042 17.9055 23.6904 18.5394 23.1198C19.1734 22.5493 19.5719 21.7629 19.6572 20.9142L20.5029 12.3885C21.2695 12.1277 21.919 11.604 22.3364 10.9102C22.7539 10.2164 22.9123 9.39724 22.7836 8.59783C22.6549 7.79841 22.2475 7.07034 21.6334 6.54255C21.0194 6.01477 20.2383 5.72134 19.4286 5.71424ZM17.3601 20.6856C17.3317 20.9685 17.1988 21.2307 16.9875 21.4208C16.7762 21.611 16.5015 21.7156 16.2172 21.7142H6.6401C6.3558 21.7156 6.08117 21.611 5.86984 21.4208C5.65852 21.2307 5.52567 20.9685 5.49725 20.6856L4.68582 12.5714H18.1715L17.3601 20.6856ZM19.4286 10.2857H3.42868C3.12557 10.2857 2.83488 10.1653 2.62056 9.95092C2.40623 9.7366 2.28582 9.44591 2.28582 9.1428C2.28582 8.8397 2.40623 8.54901 2.62056 8.33468C2.83488 8.12036 3.12557 7.99995 3.42868 7.99995H19.4286C19.7318 7.99995 20.0224 8.12036 20.2368 8.33468C20.4511 8.54901 20.5715 8.8397 20.5715 9.1428C20.5715 9.44591 20.4511 9.7366 20.2368 9.95092C20.0224 10.1653 19.7318 10.2857 19.4286 10.2857Z" fill="#242424"/>
</g>
<defs>
<clipPath id="clip0_3022_113366">
<rect width="22.8571" height="24" fill="white"/>
</clipPath>
</defs>
</svg>
