<svg width="114" height="14" viewBox="0 0 114 14" fill="none" xmlns="http://www.w3.org/2000/svg">
<g clip-path="url(#clip0_1013:11227)">
<path d="M70.4222 3.3537e-06C70.077 -0.000679384 69.7393 0.102895 69.452 0.297615C69.1646 0.492336 68.9404 0.769451 68.8079 1.09389C68.6753 1.41833 68.6402 1.7755 68.7072 2.12022C68.7741 2.46493 68.94 2.78169 69.1839 3.03039C69.4278 3.2791 69.7386 3.44858 70.0772 3.51738C70.4157 3.58618 70.7667 3.55122 71.0857 3.41691C71.4047 3.2826 71.6774 3.05499 71.8693 2.76287C72.0611 2.47075 72.1635 2.12727 72.1635 1.77589C72.1623 1.30586 71.9786 0.855383 71.6524 0.522702C71.3262 0.190021 70.884 0.00212723 70.4222 3.3537e-06Z" fill="black"/>
<path d="M2.89221 0.533691H2.77695H0.72939H0.61413H0.5V0.65101V0.767178V13.7665V13.8827V14H0.61413H0.72939H2.77695H2.89221V13.7665V9.31992H7.1105H7.22576V9.08644V6.99311V6.87694H7.1105H2.89221V2.97668H7.1105H7.22576V2.74319V0.65101V0.533691H7.1105H2.89221Z" fill="black"/>
<path d="M18.7664 11.5707C17.9322 11.5705 17.1168 11.3185 16.4232 10.8467C15.7296 10.3749 15.1889 9.70444 14.8696 8.91999C14.5502 8.13553 14.4665 7.27233 14.629 6.43946C14.7914 5.60659 15.1928 4.84143 15.7824 4.24068C16.372 3.63993 17.1233 3.23056 17.9414 3.06429C18.7594 2.89802 19.6076 2.98232 20.3786 3.30653C21.1497 3.63074 21.809 4.18032 22.2732 4.88581C22.7375 5.5913 22.9859 6.42104 22.987 7.27017C22.9877 7.83475 22.8791 8.39393 22.6673 8.91574C22.4555 9.43754 22.1448 9.91173 21.7528 10.3112C21.3608 10.7106 20.8952 11.0274 20.3828 11.2436C19.8704 11.4597 19.3211 11.5708 18.7664 11.5707ZM18.7664 0.547363C17.4587 0.547136 16.1802 0.941661 15.0928 1.68104C14.0053 2.42043 13.1577 3.47145 12.6572 4.70119C12.1566 5.93093 12.0256 7.28415 12.2807 8.58969C12.5358 9.89523 13.1655 11.0945 14.0902 12.0357C15.0149 12.9769 16.1931 13.6179 17.4757 13.8775C18.7584 14.1372 20.0878 14.0038 21.296 13.4943C22.5042 12.9848 23.5367 12.122 24.2632 11.0152C24.9896 9.90831 25.3772 8.60703 25.3769 7.27592C25.376 5.49167 24.6793 3.78077 23.4398 2.51912C22.2003 1.25747 20.5194 0.548278 18.7664 0.547363Z" fill="black"/>
<path d="M61.8274 11.5651V0.65101V0.533691H61.7121H59.5425H59.4272V0.65101V13.7665V14H59.5425H67.1316H67.2457V13.7665V11.6812V11.5651H67.1316H61.8274Z" fill="black"/>
<path d="M82.5177 6.8898H80.469V2.97919H82.5177C83.6556 2.97919 84.5732 3.78432 84.5732 4.9345C84.5732 6.08468 83.6556 6.8898 82.5177 6.8898ZM82.6307 0.54541H78.0677V14.0025H80.4679V9.33164H82.6307C85.0319 9.26953 86.9642 7.39933 86.9642 4.94025C86.9642 2.48116 85.0319 0.61097 82.6307 0.548861" fill="black"/>
<path d="M113.32 0.533691H111.157H111.086L111.043 0.625706L108.995 4.79856L106.939 0.621105L106.895 0.533691H106.824H104.661H104.481L104.591 0.767178L107.795 7.2956V13.7665V14H107.91H110.073H110.187V13.7665V7.3002L113.393 0.767178L113.5 0.533691H113.32Z" fill="black"/>
<path d="M49.976 8.25831H47.6109L48.8968 4.33044L50.185 8.25831H49.976ZM54.392 13.7665L50.0912 0.625704L50.0607 0.533691H47.734L47.7013 0.631457L43.3982 13.7665L43.3677 13.8574L43.3372 13.954L43.3225 14H45.7328L45.7678 13.8942L46.8165 10.6932H50.9839L52.0348 13.9011L52.0665 14H54.4688L54.4248 13.8631L54.392 13.7665Z" fill="black"/>
<path d="M30.4992 5.14829C30.1677 6.16732 30.0802 7.25221 30.244 8.31261C30.4077 9.37302 30.818 10.3783 31.4406 11.2447C32.0632 12.1111 32.8801 12.8135 33.8233 13.2936C34.7666 13.7737 35.8088 14.0175 36.8633 14.0047L37.6894 11.4685C36.9616 11.6314 36.2044 11.5952 35.4949 11.3635C34.7854 11.1318 34.1488 10.7129 33.65 10.1495C33.1511 9.58607 32.8078 8.89819 32.6549 8.15586C32.5021 7.41353 32.5451 6.64324 32.7797 5.92335C33.0143 5.20345 33.4321 4.55966 33.9905 4.05747C34.5489 3.55527 35.228 3.2126 35.9588 3.06432C36.6896 2.91604 37.4459 2.96743 38.1508 3.21327C38.8557 3.45912 39.4841 3.89065 39.972 4.46394L40.798 1.93354C39.9605 1.28299 38.9826 0.845182 37.9455 0.656474C36.9085 0.467767 35.8421 0.533603 34.8351 0.848517C33.828 1.16343 32.9093 1.71834 32.1552 2.46716C31.4011 3.21598 30.8334 4.1371 30.4992 5.15405" fill="black"/>
<path d="M96.6799 8.25831H94.3148L95.6007 4.33044L96.889 8.25831H96.6799ZM101.095 13.7665L96.794 0.625704L96.7635 0.533691H94.4346L94.4018 0.631457L90.0999 13.7665L90.0694 13.8574L90.0378 13.954L90.0231 14H92.4345L92.4684 13.8942L93.517 10.6932H97.68L98.7309 13.9011L98.7636 14H101.167L101.123 13.8631L101.095 13.7665Z" fill="black"/>
</g>
<defs>
<clipPath id="clip0_1013:11227">
<rect width="113" height="14" fill="white" transform="translate(0.5)"/>
</clipPath>
</defs>
</svg>
